<svg xmlns="http://www.w3.org/2000/svg" width="250" height="250" fill="none" viewBox="0 0 250 250">
  <path d="m80.98 92.51c11.98-4.55 22.1-9.05 31.19-8.86 8.28 0.17 9.88 4.77 7.05 10.27-2.04 4.04-1.28 3.21 1.71 3.02 6.7-0.39 7.35-2.78 21.48-2.74-0.21 5.99-0.7 12.44 0.62 12.99 2.87 1.21 5.69-2.1 10.36-0.45 2.69 0.97 2.73 2.14 2.56 6.22" stroke="url(#paint0_linear_4_173)" stroke-linecap="round" stroke-linejoin="round" stroke-miterlimit="10" stroke-width="1.2"/>
  <path d="m143.9 94.33c6.03-0.07 11.3 2.28 17.27 2.38 3.41 0.06 2.72-1.62 1.09-4.95-2.56-5.28 0.2-8.4 7.05-8.11 7.33 0.3 14.24 3.42 24.55 6.61l-2.96 7.94" stroke="url(#paint1_linear_4_173)" stroke-linecap="round" stroke-linejoin="round" stroke-miterlimit="10" stroke-width="1.2"/>
  <path d="m186 101.5c13.32-0.04 21.93 0.69 38.92 4.18l-1.8 7.45" stroke="url(#paint2_linear_4_173)" stroke-linecap="round" stroke-linejoin="round" stroke-miterlimit="10" stroke-width="1.2"/>
  <path d="m156.8 158.8c10.01-0.26 16.93 6.88 27.93 6.88 5.63 0 6.18-3.02 5.1-4.99-1.53-2.96-3.7-3.89-0.94-6.47 3.31-2.42 15.49 0.49 26.82 3.08l2.3-9.27" stroke="url(#paint3_linear_4_173)" stroke-linecap="round" stroke-linejoin="round" stroke-miterlimit="10" stroke-width="1.2"/>
  <path d="m153.8 159c-4.63-0.1-7.62 0.29-13.37 1.62" stroke="url(#paint4_linear_4_173)" stroke-linecap="round" stroke-linejoin="round" stroke-miterlimit="10" stroke-width="1.2"/>
  <path d="m135 151.6 1.7 10.17c-7.59 1.84-13.82 4.39-20.78 4.39-5.1 0-5.82-2.85-4.13-5.97 2.04-3.81 1.45-5.68-5.07-4.58-4.63 0.77-7.8 2.44-15.6 4.48" stroke="url(#paint5_linear_4_173)" stroke-linecap="round" stroke-linejoin="round" stroke-miterlimit="10" stroke-width="1.2"/>
  <path d="m100.7 102.3 13.86-1.97c-4.32 1.91-11.51 1.81-12.13 2.34-0.44 0.39 1.56 12.13 0.21 14.25-0.79 0.9-2.7-0.1-5.68-0.13" stroke="url(#paint6_linear_4_173)" stroke-linecap="round" stroke-linejoin="round" stroke-miterlimit="10" stroke-width="1.2"/>
  <path d="m113.7 104.6h9.86v24.45c0 10.85-5.6 16.55-15.16 16.55-3.03 0-6.17-0.52-8.27-1.17l1.29-8.49c1.42 0.52 3.4 1.11 5.44 1.11 4.36 0 6.84-2.38 6.84-8.37v-24.08z" fill="url(#paint7_linear_4_173)" stroke="url(#paint8_linear_4_173)" stroke-miterlimit="10" stroke-width=".25"/>
  <path d="m128.3 108.1c0-3.68 1.81-4.75 5.1-4.75s5.1 1.07 5.1 4.75c0 3.54-1.74 4.84-5.1 4.84-3.43 0-5.1-1.3-5.1-4.84zm0.55 7.76h9.1v27.61h-9.1v-27.61z" fill="url(#paint9_linear_4_173)" stroke="url(#paint10_linear_4_173)" stroke-miterlimit="10" stroke-width=".25"/>
  <path d="m142.8 143.7c3.22 1.71 6.85 2.68 10.35 2.68 5.74 0 8.4-2.1 8.33-7.37l-0.07-1.1c-2.1 2.65-5.06 4.04-8.56 4.04-7.46 0-12.06-4.83-12.06-13.32 0-7.92 4.93-13.13 12.53-13.13 3.77 0 6.66 1.52 8.63 4.24l0.14-3.91h7.53v24.21c0 9.15-6.85 13.48-16.57 13.48-3.9 0-7.4-0.9-11.17-2.64l0.92-7.18zm12.38-21.62c-4.33 0-5.69 3.68-5.69 6.68 0 4.2 2.11 6.85 5.81 6.85 3.87 0 6.04-3.11 6.04-7.18 0-3.61-1.9-6.35-6.16-6.35z" fill="url(#paint11_linear_4_173)" stroke="url(#paint12_linear_4_173)" stroke-miterlimit="10" stroke-width=".25"/>
  <path d="m173.8 115.8h8.35l0.07 4.04c2.04-3.12 4.83-4.55 8.4-4.55 4.46 0 6.79 1.9 7.78 4.69 1.87-2.99 4.97-4.69 9.16-4.69 7.06 0 8.62 4.42 8.62 10.34v17.78h-8.07v-16.14c0-3.54-1.06-5.15-4.02-5.15-3.36 0-4.85 2-4.85 6.67v14.62h-9.31v-16.2c0-3.09-0.95-4.89-3.78-4.89-3.46 0-3.85 2.72-3.85 6.08v15.01h-8.5v-27.61z" fill="url(#paint13_linear_4_173)" stroke="url(#paint14_linear_4_173)" stroke-miterlimit="10" stroke-width=".25"/>
  <path d="m238.7 140.7c-2.49 2.22-5.25 3.65-9.44 3.65-5.74 0-9.44-3.19-9.44-8.6 0-5.99 5.24-7.99 11.41-8.51l7.47-0.62v-0.58c0-2.59-1.87-3.89-6-3.89-3.15 0-6.37 0.9-9.46 2.46l-1.06-6.93c3.33-1.56 7.36-2.46 11.99-2.46 8.53 0 13.23 3.32 13.23 10.18v18.04h-8.56l-0.14-2.74zm-4.46-9.85c-3.29 0.26-5.4 1.23-5.4 3.85 0 2.16 1.46 3.13 3.87 3.13 2.49 0 4.53-1.17 5.99-2.47v-4.83l-4.46 0.32z" fill="url(#paint15_linear_4_173)" stroke="url(#paint16_linear_4_173)" stroke-miterlimit="10" stroke-width=".25"/>
  <path d="m30.19 167.8c-1.46-0.59 0.85-7.58 3.44-11.04l16.19-0.8c-1.2 2.85-2.09 7.9 0.15 12.3-0.56 0.46-18.66 0.07-19.78-0.46z" fill="url(#paint17_linear_4_173)" stroke="url(#paint18_linear_4_173)" stroke-miterlimit="10" stroke-width=".25"/>
  <path d="m63.48 167.6c-1.53-1.32-2.69-10.85-4.56-11.88l20.29 0.56c2.62 2.72 7.12 9.58 6.46 11.45-0.55 0.66-21.06 0.59-22.19-0.13z" fill="url(#paint19_linear_4_173)" stroke="url(#paint20_linear_4_173)" stroke-miterlimit="10" stroke-width=".25"/>
  <path d="m46.32 90.06c0.29-4.83 5.22-8.02 10.43-8.54l3.86 0.13c7.2 0.13 10.45 4.96 9.5 9.06-0.69 3.06-2.36 4.65-1.38 5.85 1.19 1.49 5.76 0.06 21.06-1.04 2.52-0.2 3.53 0.71 3.53 3.16l0.42 10.4-2.34 1.17-1.47 0.97 2.89 0.9 0.79 25.13c0.13 2.22-0.85 2.96-2.96 2.63-2.69-0.45-3.74-3.14-7.03-2.62-5.17 0.8-7.58 9.62-1.19 11.55 4 1.23 6.18-2.78 9.48-2.32 1.46 0.26 1.6 1.16 1.46 3.26l-0.21 5.37c0 1.46-0.95 2.36-3.37 2.23l-29.48-1.29-39.92 1.45c-2.04-0.13-2.96-0.65-2.82-2.69l0.14-15.2-4.8 2.16c-6.78 1.46-9.77-3.91-10.05-9.18-0.35-6.66 3.81-12.35 9.48-12.54 3.97-0.13 6.49 3.09 9.08 2.7 1.9-0.33 2.31-1.95 2.93-4.47 0.49-2.16 1.88-1.13 2.16 0 1.6 6.67 5.6 11.72 15 11.91 9.16 0.2 12.45-1.96 16.85-4.25 3.05-1.52 3.97-1.59 6.8 0 5.81 3.18 8.08 3.95 12.55 3.73 9.16-0.46 12.05-3.79 13.44-12.21l-0.79-6.41-2.52-0.65-20.02 0.83-43.7-1.23-6.86 7.34-0.14-14.04c0-1.68 0.42-2.08 1.61-3.11l7.73-5.14c1.29-0.33 11.4 1.19 20.66 1.32 3.22 0.07 3.29-1.32 2.03-3.54-1.32-2.52-2.95-3.11-2.83-2.78z" fill="url(#paint21_linear_4_173)" stroke="url(#paint22_linear_4_173)" stroke-miterlimit="10" stroke-width=".25"/>
  <path d="m24.87 97.24 1.29-1.23c0.69-0.46 1.25-0.52 3.08-0.33 5.68 0.66 12.6 1.56 18.51 1.36 3.12-0.13 3.74-1.29 2.42-4.01-2.11-3.75-2.31-6.94 0.45-9.22 2.45-2.03 4.29-2.49 7.65-2.55 7.66-0.13 12.19 4.37 10.22 10.2-0.82 2.65-2.42 4.75-0.15 6.17 1.53 0.97 12.12-0.59 21.38-1.82 2.39-0.33 3.51 0.77 3.65 2.51l0.45 10.78c-8.99 1.17-14.87 2.33-26.78 2.01-10.31-0.3-22.01-2.04-36.92-2.1-3.29-0.07-4.89 0.26-5.31 1.29l0.06-13.06z" fill="url(#paint23_linear_4_173)" stroke="url(#paint24_linear_4_173)" stroke-miterlimit="10" stroke-width=".5"/>
  <path d="m24.94 108.9-0.28-11.11c0.07-1.59 1.36-2.35 2.75-2.22" stroke="url(#paint25_linear_4_173)" stroke-miterlimit="10" stroke-width=".5"/>
  <path d="m17.72 103-0.07 13.77 7.3-7.81" fill="url(#paint26_linear_4_173)"/>
  <path d="m30.61 115.3c1.67 7.85 5.4 12.83 15.12 12.9 7.53 0.06 9.44-1.56 13.4-3.94 3.8-2.22 5.06-2.02 8.59-0.06 6.04 3.25 7.88 4.15 12.41 3.63 7.46-0.8 10.48-4.12 10.48-12.73" stroke="#FEFEFF" stroke-linecap="round" stroke-linejoin="round" stroke-miterlimit="10" stroke-width="1.2"/>
  <path d="m40.73 115 3.22 1.56c1.39 0.72 1.18 0.85 1.6 3.24 0.69 2.92 3.21 3.82 4.94 3.43 2.92-0.7 3.54-2.22 3.26-5.17l-13.02-3.06z" fill="#FEFEFF" stroke="#D0D5F1" stroke-linecap="round" stroke-linejoin="round" stroke-miterlimit="10" stroke-width=".5"/>
  <path d="m84.49 115-3.22 1.56c-1.39 0.72-4.08 1.11-7.95 1.97-2.1 0.45-3.16 4.26 0.27 5.75 3.87 1.62 6.63-0.47 7.25-3.32 0.62-2.86 0.41-3.29 3.65-5.96z" fill="#FEFEFF" stroke="#D0D5F1" stroke-linecap="round" stroke-linejoin="round" stroke-miterlimit="10" stroke-width=".5"/>
  <path d="m17.71 139.3 2.83-2.03c2.21-1.33 3.6-0.61 3.53 1.84l-0.14 12.71c-0.06 2.85 1.53 3.75 4.43 3.42l-8.04 1.46c-1.67-0.07-2.55-0.59-2.61-2.08v-15.32z" fill="url(#paint27_linear_4_173)" stroke="url(#paint28_linear_4_173)" stroke-miterlimit="10" stroke-width=".25"/>
  <path d="m35.92 166.1c-0.56-3.46 0.83-4.85 4.02-4.98 4.22-0.2 6.91 1.39 9.02 4.91l-13.04 0.07z" fill="url(#paint29_linear_4_173)" stroke="url(#paint30_linear_4_173)" stroke-miterlimit="10" stroke-width=".25"/>
  <path d="m66.32 165.8c0.62-3.71 3.45-4.51 6.81-4.51 4.53 0 8.13 1.65 11.49 5.36l-18.3-0.85z" fill="url(#paint31_linear_4_173)" stroke="url(#paint32_linear_4_173)" stroke-miterlimit="10" stroke-width=".25"/>
  <defs>
    <linearGradient id="paint0_linear_4_173" x1="80.98" x2="156" y1="90.81" y2="90.81" gradientUnits="userSpaceOnUse">
      <stop stop-color="#D396FF" offset="0"/>
      <stop stop-color="#4368B7" offset="1"/>
    </linearGradient>
    <linearGradient id="paint1_linear_4_173" x1="143.8" x2="193.9" y1="90.16" y2="90.16" gradientUnits="userSpaceOnUse">
      <stop stop-color="#8B55D9" offset="0"/>
      <stop stop-color="#4368B7" offset="1"/>
    </linearGradient>
    <linearGradient id="paint2_linear_4_173" x1="186" x2="224.9" y1="101.5" y2="101.5" gradientUnits="userSpaceOnUse">
      <stop stop-color="#8B55D9" offset="0"/>
      <stop stop-color="#4368B7" offset="1"/>
    </linearGradient>
    <linearGradient id="paint3_linear_4_173" x1="156.6" x2="218" y1="158.6" y2="158.6" gradientUnits="userSpaceOnUse">
      <stop stop-color="#4368B7" offset="0"/>
      <stop stop-color="#4368B7" offset="1"/>
    </linearGradient>
    <linearGradient id="paint4_linear_4_173" x1="140.4" x2="153.8" y1="159.5" y2="159.5" gradientUnits="userSpaceOnUse">
      <stop stop-color="#8B55D9" offset="0"/>
      <stop stop-color="#4368B7" offset="1"/>
    </linearGradient>
    <linearGradient id="paint5_linear_4_173" x1="91.11" x2="137.5" y1="159.3" y2="159.3" gradientUnits="userSpaceOnUse">
      <stop stop-color="#8B55D9" offset="0"/>
      <stop stop-color="#4368B7" offset="1"/>
    </linearGradient>
    <linearGradient id="paint6_linear_4_173" x1="96.49" x2="114.5" y1="108.7" y2="108.7" gradientUnits="userSpaceOnUse">
      <stop stop-color="#8B55D9" offset="0"/>
      <stop stop-color="#4368B7" offset="1"/>
    </linearGradient>
    <linearGradient id="paint7_linear_4_173" x1="111.8" x2="111.8" y1="104.6" y2="145.6" gradientUnits="userSpaceOnUse">
      <stop stop-color="#FEDEFF" offset="0"/>
      <stop stop-color="#5A32BF" offset="1"/>
    </linearGradient>
    <linearGradient id="paint8_linear_4_173" x1="111.8" x2="111.8" y1="104.6" y2="145.6" gradientUnits="userSpaceOnUse">
      <stop stop-color="#D9D9D9" offset="0"/>
      <stop stop-color="#5030A0" offset="1"/>
    </linearGradient>
    <linearGradient id="paint9_linear_4_173" x1="133.4" x2="133.4" y1="103.3" y2="143.4" gradientUnits="userSpaceOnUse">
      <stop stop-color="#FFE1FE" offset="0"/>
      <stop stop-color="#4737D1" offset="1"/>
    </linearGradient>
    <linearGradient id="paint10_linear_4_173" x1="133.4" x2="133.4" y1="103.3" y2="143.4" gradientUnits="userSpaceOnUse">
      <stop stop-color="#D9D9D9" offset="0"/>
      <stop stop-color="#5030A0" offset="1"/>
    </linearGradient>
    <linearGradient id="paint11_linear_4_173" x1="155.2" x2="155.2" y1="115.3" y2="153.5" gradientUnits="userSpaceOnUse">
      <stop stop-color="#FEF0FF" offset="0"/>
      <stop stop-color="#BDC4D6" offset="1"/>
    </linearGradient>
    <linearGradient id="paint12_linear_4_173" x1="155.2" x2="155.2" y1="115.3" y2="153.5" gradientUnits="userSpaceOnUse">
      <stop stop-color="#D9D9D9" offset="0"/>
      <stop stop-color="#8395B2" offset="1"/>
    </linearGradient>
    <linearGradient id="paint13_linear_4_173" x1="195" x2="195" y1="115.3" y2="143.4" gradientUnits="userSpaceOnUse">
      <stop stop-color="#FEFEFE" offset="0"/>
      <stop stop-color="#C8CEDD" offset="1"/>
    </linearGradient>
    <linearGradient id="paint14_linear_4_173" x1="195" x2="195" y1="115.3" y2="143.4" gradientUnits="userSpaceOnUse">
      <stop stop-color="#D9D9D9" offset="0"/>
      <stop stop-color="#8395B2" offset="1"/>
    </linearGradient>
    <linearGradient id="paint15_linear_4_173" x1="233.6" x2="233.6" y1="115.2" y2="144.3" gradientUnits="userSpaceOnUse">
      <stop stop-color="#FEFEFE" offset="0"/>
      <stop stop-color="#C8CEDD" offset="1"/>
    </linearGradient>
    <linearGradient id="paint16_linear_4_173" x1="233.6" x2="233.6" y1="115.2" y2="144.3" gradientUnits="userSpaceOnUse">
      <stop stop-color="#D9D9D9" offset="0"/>
      <stop stop-color="#8395B2" offset="1"/>
    </linearGradient>
    <linearGradient id="paint17_linear_4_173" x1="39.6" x2="39.6" y1="155.8" y2="168.4" gradientUnits="userSpaceOnUse">
      <stop stop-color="#261684" offset="0"/>
      <stop stop-color="#3940C4" offset="1"/>
    </linearGradient>
    <linearGradient id="paint18_linear_4_173" x1="39.6" x2="39.6" y1="155.8" y2="168.4" gradientUnits="userSpaceOnUse">
      <stop stop-color="#07074E" offset="0"/>
      <stop stop-color="#03267A" offset="1"/>
    </linearGradient>
    <linearGradient id="paint19_linear_4_173" x1="72.42" x2="72.42" y1="155.6" y2="168.3" gradientUnits="userSpaceOnUse">
      <stop stop-color="#261684" offset="0"/>
      <stop stop-color="#5A32BF" offset="1"/>
    </linearGradient>
    <linearGradient id="paint20_linear_4_173" x1="72.42" x2="72.42" y1="155.6" y2="168.3" gradientUnits="userSpaceOnUse">
      <stop stop-color="#07074E" offset="0"/>
      <stop stop-color="#03267A" offset="1"/>
    </linearGradient>
    <linearGradient id="paint21_linear_4_173" x1="48.3" x2="54.92" y1="81.26" y2="158.2" gradientUnits="userSpaceOnUse">
      <stop stop-color="#3A0596" offset="0"/>
      <stop stop-color="#B154FF" offset=".4635"/>
      <stop stop-color="#1568D4" offset="1"/>
    </linearGradient>
    <linearGradient id="paint22_linear_4_173" x1="48.3" x2="54.92" y1="81.26" y2="158.2" gradientUnits="userSpaceOnUse">
      <stop stop-color="#07074E" offset="0"/>
      <stop stop-color="#03267A" offset="1"/>
    </linearGradient>
    <linearGradient id="paint23_linear_4_173" x1="59.11" x2="60.08" y1="81.24" y2="111.6" gradientUnits="userSpaceOnUse">
      <stop stop-color="#B569FF" offset="0"/>
      <stop stop-color="#823CE1" offset="1"/>
    </linearGradient>
    <linearGradient id="paint24_linear_4_173" x1="59.11" x2="60.08" y1="81.24" y2="111.6" gradientUnits="userSpaceOnUse">
      <stop stop-color="#FEDEFF" offset="0"/>
      <stop stop-color="#4737D1" offset="1"/>
    </linearGradient>
    <linearGradient id="paint25_linear_4_173" x1="26.23" x2="26.23" y1="95.52" y2="110.3" gradientUnits="userSpaceOnUse">
      <stop stop-color="#FEDEFF" offset="0"/>
      <stop stop-color="#4737D1" offset="1"/>
    </linearGradient>
    <linearGradient id="paint26_linear_4_173" x1="21.3" x2="21.3" y1="103.1" y2="116.8" gradientUnits="userSpaceOnUse">
      <stop stop-color="#5538BA" offset="0"/>
      <stop stop-color="#0B1544" offset="1"/>
    </linearGradient>
    <linearGradient id="paint27_linear_4_173" x1="21.06" x2="21.06" y1="136.7" y2="156.7" gradientUnits="userSpaceOnUse">
      <stop stop-color="#0A1853" offset="0"/>
      <stop stop-color="#2448C5" offset=".515"/>
      <stop stop-color="#3486E2" offset="1"/>
    </linearGradient>
    <linearGradient id="paint28_linear_4_173" x1="21.06" x2="21.06" y1="136.7" y2="156.7" gradientUnits="userSpaceOnUse">
      <stop stop-color="#07074E" offset="0"/>
      <stop stop-color="#03267A" offset="1"/>
    </linearGradient>
    <linearGradient id="paint29_linear_4_173" x1="42.44" x2="42.44" y1="160.8" y2="166.2" gradientUnits="userSpaceOnUse">
      <stop stop-color="#261684" offset="0"/>
      <stop stop-color="#5A32BF" offset="1"/>
    </linearGradient>
    <linearGradient id="paint30_linear_4_173" x1="42.44" x2="42.44" y1="160.8" y2="166.2" gradientUnits="userSpaceOnUse">
      <stop stop-color="#07074E" offset="0"/>
      <stop stop-color="#03267A" offset="1"/>
    </linearGradient>
    <linearGradient id="paint31_linear_4_173" x1="75.47" x2="75.47" y1="161" y2="166.7" gradientUnits="userSpaceOnUse">
      <stop stop-color="#5A32BF" offset="0"/>
      <stop stop-color="#7A40D4" offset="1"/>
    </linearGradient>
    <linearGradient id="paint32_linear_4_173" x1="75.47" x2="75.47" y1="161" y2="166.7" gradientUnits="userSpaceOnUse">
      <stop stop-color="#07074E" offset="0"/>
      <stop stop-color="#03267A" offset="1"/>
    </linearGradient>
  </defs>
</svg>
